<?xml version="1.0" encoding="UTF-8" standalone="no"?><!DOCTYPE svg PUBLIC "-//W3C//DTD SVG 1.1//EN" "http://www.w3.org/Graphics/SVG/1.1/DTD/svg11.dtd"><svg width="100%" height="100%" viewBox="0 0 200 200" version="1.1" xmlns="http://www.w3.org/2000/svg" xmlns:xlink="http://www.w3.org/1999/xlink" xml:space="preserve" xmlns:serif="http://www.serif.com/" style="fill-rule:evenodd;clip-rule:evenodd;stroke-linejoin:round;stroke-miterlimit:2;"><path d="M184.556,-0c8.53,0 15.444,6.914 15.444,15.444c0,37.275 -0,131.837 -0,169.112c-0,8.53 -6.914,15.444 -15.444,15.444c-37.275,0 -131.837,0 -169.112,0c-8.53,-0 -15.444,-6.914 -15.444,-15.444c-0,-37.275 -0,-131.837 -0,-169.112c0,-8.53 6.914,-15.444 15.444,-15.444l169.112,0Z" style="fill:url(#_Radial1);"/><path id="Logo" d="M93.594,106.406l-0,-89.685l12.812,0l0,76.873l76.873,-0l-0,12.812l-89.685,0Zm-25.624,25.624l-0,-115.309l12.812,0l-0,102.497l102.497,0l-0,12.812l-115.309,0Zm-25.625,25.625l0,-140.934l12.812,0l0,128.122l128.122,-0l-0,12.812l-140.934,-0Zm-12.811,25.624c-7.076,-0 -12.813,-5.737 -12.813,-12.813l0,-140.937c0,-3.397 1.349,-6.654 3.752,-9.057c2.402,-2.402 5.659,-3.751 9.056,-3.751c0.003,0 0.004,0 0.004,0l0,153.746l153.746,-0l-0,0.004c-0,3.397 -1.349,6.654 -3.751,9.056c-2.403,2.403 -5.66,3.752 -9.057,3.752c-31.022,-0 -109.91,-0 -140.937,-0Zm89.684,-102.497l0,-64.061l51.253,0c3.397,0 6.654,1.349 9.057,3.752c2.402,2.402 3.751,5.659 3.751,9.056c-0,0.003 -0,0.004 -0,0.004l-51.249,0l0,12.812l51.249,0l-0,12.812l-51.249,0l0,12.813l51.249,-0l-0,12.812l-64.061,-0Z" style="fill:url(#_Radial2);"/><defs><radialGradient id="_Radial1" cx="0" cy="0" r="1" gradientUnits="userSpaceOnUse" gradientTransform="matrix(-152.941,152.941,-152.941,-152.941,176.471,23.5294)"><stop offset="0" style="stop-color:#636a73;stop-opacity:1"/><stop offset="1" style="stop-color:#111a20;stop-opacity:1"/></radialGradient><radialGradient id="_Radial2" cx="0" cy="0" r="1" gradientUnits="userSpaceOnUse" gradientTransform="matrix(-153.746,153.746,-153.746,-153.746,170.467,29.5332)"><stop offset="0" style="stop-color:#ecf2fc;stop-opacity:1"/><stop offset="0.55" style="stop-color:#c9d1db;stop-opacity:1"/><stop offset="1" style="stop-color:#465861;stop-opacity:1"/></radialGradient></defs></svg>