<?xml version="1.0" encoding="UTF-8" standalone="no"?><!DOCTYPE svg PUBLIC "-//W3C//DTD SVG 1.1//EN" "http://www.w3.org/Graphics/SVG/1.1/DTD/svg11.dtd"><svg width="100%" height="100%" viewBox="0 0 200 200" version="1.1" xmlns="http://www.w3.org/2000/svg" xmlns:xlink="http://www.w3.org/1999/xlink" xml:space="preserve" xmlns:serif="http://www.serif.com/" style="fill-rule:evenodd;clip-rule:evenodd;stroke-linejoin:round;stroke-miterlimit:2;"><path d="M176.357,0c6.27,-0 12.284,2.491 16.718,6.925c4.434,4.434 6.925,10.448 6.925,16.718l0,152.714c0,6.27 -2.491,12.284 -6.925,16.718c-4.434,4.434 -10.448,6.925 -16.718,6.925l-152.714,0c-6.27,0 -12.284,-2.491 -16.718,-6.925c-4.434,-4.434 -6.925,-10.448 -6.925,-16.718l0,-152.714c-0,-6.27 2.491,-12.284 6.925,-16.718c4.434,-4.434 10.448,-6.925 16.718,-6.925l152.714,0Z" style="fill:url(#_Radial1);"/><path id="Logo" d="M76.403,123.597l-0,-110.12l15.731,-0l0,94.389l94.389,-0l0,15.731l-110.12,0Zm-31.463,31.463l-0,-141.583l15.731,-0l0,125.852l125.852,-0l0,15.731l-141.583,0Zm-15.733,31.463c-8.688,0 -15.73,-7.042 -15.73,-15.73l-0,-141.586c-0,-8.688 7.042,-15.73 15.73,-15.73c0.001,-0 0.001,-0 0.001,-0l0,157.315l157.315,-0l0,0.001c0,8.688 -7.042,15.73 -15.73,15.73c-32.906,0 -108.68,0 -141.586,0Zm78.659,-94.389l-0,-78.657l62.927,-0c8.688,-0 15.73,7.042 15.73,15.73c0,0.001 0,0.001 0,0.001l-62.926,0l0,15.732l62.926,-0l0,15.731l-62.926,0l0,15.732l62.926,-0l0,15.731l-78.657,0Z" style="fill:url(#_Radial2);"/><defs><radialGradient id="_Radial1" cx="0" cy="0" r="1" gradientUnits="userSpaceOnUse" gradientTransform="matrix(-152.941,152.941,-152.941,-152.941,176.471,23.5294)"><stop offset="0" style="stop-color:#636a73;stop-opacity:1"/><stop offset="1" style="stop-color:#192024;stop-opacity:1"/></radialGradient><radialGradient id="_Radial2" cx="0" cy="0" r="1" gradientUnits="userSpaceOnUse" gradientTransform="matrix(-188.778,188.778,-188.778,-188.778,170.792,29.2084)"><stop offset="0" style="stop-color:#fff676;stop-opacity:1"/><stop offset="0.25" style="stop-color:#fff78d;stop-opacity:1"/><stop offset="0.52" style="stop-color:#fffacc;stop-opacity:1"/><stop offset="0.76" style="stop-color:#7c7c4e;stop-opacity:1"/><stop offset="1" style="stop-color:#515224;stop-opacity:1"/></radialGradient></defs></svg>